<svg width="699" height="204" viewBox="0 0 699 204" fill="none" xmlns="http://www.w3.org/2000/svg">
<rect x="3.70215" y="3.70215" width="690.94" height="195.86" rx="97.93" fill="black" fill-opacity="0.1"/>
<rect x="1.85108" y="1.85108" width="694.642" height="199.562" rx="99.7811" stroke="#777777" stroke-opacity="0.24" stroke-width="3.70213"/>
<path d="M204.562 105.943H210.027C210.027 105.943 210.027 106.254 210.027 106.875C210.027 107.453 210.004 107.942 209.96 108.342C209.605 113.939 209.249 118.471 208.894 121.936C208.583 125.401 208.183 128.066 207.694 129.932C207.25 131.754 206.695 133.042 206.028 133.797C205.406 134.553 204.718 135.063 203.963 135.33C203.252 135.641 202.385 135.863 201.364 135.996C200.475 136.085 199.298 136.107 197.832 136.063C196.41 136.063 194.9 136.019 193.3 135.93C193.256 135.175 193.078 134.308 192.767 133.331C192.501 132.354 192.123 131.509 191.635 130.799C193.234 130.932 194.7 131.021 196.033 131.065C197.41 131.11 198.387 131.132 198.965 131.132C199.542 131.132 200.009 131.087 200.364 130.999C200.72 130.91 201.053 130.688 201.364 130.332C201.808 129.799 202.23 128.711 202.63 127.067C203.03 125.423 203.385 122.98 203.696 119.737C204.007 116.449 204.296 112.162 204.562 106.875V105.943ZM183.904 120.67C186.215 120.225 188.902 119.648 191.968 118.937C195.033 118.182 198.187 117.404 201.43 116.605L201.963 121.403C199.031 122.158 196.099 122.935 193.167 123.735C190.28 124.49 187.592 125.179 185.104 125.801L183.904 120.67ZM185.904 77.6213H203.429V83.019H185.904V77.6213ZM201.764 77.6213H207.095C207.006 80.0647 206.85 82.6192 206.628 85.2847C206.406 87.9502 206.184 90.6157 205.962 93.2813C205.784 95.9468 205.584 98.4791 205.362 100.878C205.14 103.233 204.918 105.321 204.696 107.142L199.298 107.275C199.564 105.365 199.809 103.21 200.031 100.811C200.297 98.368 200.542 95.8135 200.764 93.148C200.986 90.438 201.186 87.7725 201.364 85.1514C201.541 82.4859 201.675 79.9758 201.764 77.6213ZM188.636 87.7503L194.033 88.0169C193.9 90.5047 193.723 93.1702 193.5 96.0135C193.278 98.8123 193.034 101.522 192.767 104.143C192.545 106.764 192.301 109.03 192.034 110.94H186.703C186.97 108.941 187.236 106.609 187.503 103.943C187.769 101.233 187.992 98.4569 188.169 95.6136C188.391 92.7704 188.547 90.1493 188.636 87.7503ZM188.569 105.943H205.295V110.94H188.569V105.943ZM228.352 76.8216C229.729 78.954 231.462 81.1753 233.55 83.4855C235.638 85.7512 237.881 87.8836 240.28 89.8827C242.724 91.8819 245.078 93.5923 247.344 95.0139C247.033 95.5026 246.678 96.1245 246.278 96.8798C245.878 97.5906 245.5 98.3236 245.145 99.0788C244.834 99.7896 244.59 100.456 244.412 101.078C241.924 99.3009 239.392 97.2352 236.815 94.8806C234.239 92.526 231.817 90.0382 229.552 87.4171C227.286 84.796 225.353 82.286 223.754 79.887L228.352 76.8216ZM226.153 74.2894L231.684 76.1552C230.085 79.5316 228.152 82.7746 225.887 85.8844C223.621 88.9498 221.177 91.793 218.556 94.4141C215.935 97.0352 213.225 99.3009 210.427 101.211C210.204 100.811 209.871 100.301 209.427 99.6786C208.983 99.0122 208.516 98.368 208.028 97.746C207.539 97.0797 207.117 96.5466 206.761 96.1467C209.427 94.503 211.959 92.5483 214.358 90.2826C216.802 88.0169 219.045 85.529 221.089 82.8191C223.132 80.1091 224.82 77.2659 226.153 74.2894ZM217.557 95.4137H237.815V100.811H217.557V95.4137ZM213.092 107.342L217.957 106.142C218.579 107.786 219.178 109.563 219.756 111.474C220.333 113.384 220.822 115.25 221.222 117.071C221.666 118.848 221.999 120.47 222.221 121.936L217.09 123.335C216.913 121.914 216.602 120.292 216.157 118.471C215.758 116.605 215.291 114.717 214.758 112.806C214.269 110.852 213.714 109.03 213.092 107.342ZM224.82 105.609L229.685 104.943C230.085 106.587 230.485 108.364 230.884 110.274C231.284 112.184 231.617 114.05 231.884 115.872C232.195 117.649 232.395 119.27 232.484 120.736L227.419 121.536C227.33 120.114 227.131 118.493 226.82 116.671C226.553 114.805 226.242 112.917 225.887 111.007C225.531 109.097 225.176 107.298 224.82 105.609ZM239.614 105.609L245.278 106.942C244.301 109.563 243.235 112.318 242.08 115.205C240.925 118.049 239.747 120.803 238.548 123.468C237.348 126.134 236.193 128.466 235.083 130.465L230.485 129.066C231.284 127.556 232.106 125.823 232.95 123.868C233.794 121.914 234.638 119.892 235.483 117.804C236.327 115.672 237.104 113.562 237.815 111.474C238.526 109.386 239.125 107.431 239.614 105.609ZM211.226 128.2H245.478V133.597H211.226V128.2ZM291.859 81.2864H298.322V131.265H291.859V81.2864ZM277.731 96.9464H283.995V131.732H277.731V96.9464ZM294.124 101.878H310.517V107.742H294.124V101.878ZM274.399 79.5538H311.783V85.4846H274.399V79.5538ZM272.4 128.266H313.116V134.131H272.4V128.266ZM255.008 80.1535L259.139 76.2885C260.339 77.2659 261.605 78.3543 262.937 79.5538C264.315 80.7089 265.603 81.8861 266.803 83.0856C268.046 84.2407 269.024 85.2847 269.735 86.2176L265.403 90.6157C264.692 89.6384 263.737 88.55 262.538 87.3505C261.383 86.1066 260.139 84.8626 258.806 83.6187C257.473 82.3304 256.207 81.1753 255.008 80.1535ZM260.472 135.197L259.072 129.199L260.339 126.867L272.8 116.938C273.022 117.471 273.266 118.093 273.533 118.804C273.844 119.515 274.155 120.203 274.466 120.87C274.777 121.491 275.043 122.002 275.266 122.402C272.333 124.801 269.957 126.756 268.135 128.266C266.314 129.777 264.892 130.954 263.87 131.798C262.849 132.687 262.093 133.375 261.605 133.864C261.16 134.353 260.783 134.797 260.472 135.197ZM251.809 95.6136H264.137V101.678H251.809V95.6136ZM260.472 135.197C260.25 134.753 259.894 134.264 259.406 133.731C258.961 133.198 258.473 132.665 257.94 132.131C257.451 131.643 257.007 131.265 256.607 130.999C257.096 130.599 257.651 130.021 258.273 129.266C258.895 128.466 259.428 127.556 259.872 126.534C260.316 125.512 260.539 124.357 260.539 123.069V95.6136H266.669V126.667C266.669 126.667 266.447 126.889 266.003 127.333C265.603 127.733 265.092 128.266 264.47 128.933C263.893 129.599 263.293 130.332 262.671 131.132C262.049 131.887 261.516 132.62 261.072 133.331C260.672 134.042 260.472 134.664 260.472 135.197ZM331.508 100.345H370.558V106.209H331.508V100.345ZM334.64 83.6187H374.157V89.6828H334.64V83.6187ZM319.047 114.606H360.629V120.67H319.047V114.606ZM368.959 100.345H375.49C375.49 100.345 375.467 100.523 375.423 100.878C375.423 101.233 375.401 101.655 375.356 102.144C375.356 102.588 375.312 102.966 375.223 103.277C374.645 109.585 374.024 114.761 373.357 118.804C372.735 122.846 372.024 126.001 371.225 128.266C370.469 130.488 369.581 132.109 368.559 133.131C367.582 134.153 366.56 134.841 365.494 135.197C364.428 135.552 363.095 135.774 361.496 135.863C360.207 135.952 358.452 135.974 356.231 135.93C354.01 135.885 351.7 135.819 349.301 135.73C349.256 134.797 349.012 133.731 348.568 132.531C348.123 131.332 347.568 130.288 346.902 129.399C349.523 129.621 352.011 129.777 354.365 129.866C356.764 129.91 358.475 129.932 359.496 129.932C360.34 129.932 361.029 129.888 361.562 129.799C362.095 129.71 362.606 129.488 363.095 129.133C363.939 128.422 364.716 127 365.427 124.868C366.138 122.735 366.782 119.737 367.36 115.872C367.937 112.007 368.47 107.164 368.959 101.345V100.345ZM332.441 76.1552L338.839 76.8216C338.439 79.2206 337.972 81.7529 337.439 84.4184C336.95 87.0839 336.417 89.7495 335.84 92.415C335.307 95.0361 334.774 97.5461 334.24 99.9451C333.752 102.3 333.285 104.388 332.841 106.209H326.111C326.644 104.254 327.199 102.055 327.777 99.6119C328.354 97.1685 328.909 94.5918 329.443 91.8819C330.02 89.1719 330.553 86.4842 331.042 83.8186C331.575 81.1087 332.041 78.5542 332.441 76.1552ZM424.935 102.744L431.332 104.61C428.845 110.607 425.557 115.716 421.47 119.937C417.427 124.113 412.674 127.556 407.209 130.266C401.745 132.931 395.659 135.108 388.951 136.796C388.728 136.307 388.395 135.708 387.951 134.997C387.507 134.286 387.018 133.575 386.485 132.864C385.996 132.154 385.552 131.576 385.152 131.132C391.727 129.799 397.636 127.955 402.878 125.601C408.12 123.202 412.607 120.137 416.339 116.405C420.071 112.673 422.936 108.119 424.935 102.744ZM402.678 91.3488L408.809 93.7477C407.254 95.658 405.477 97.5683 403.478 99.4786C401.523 101.389 399.479 103.188 397.347 104.876C395.215 106.52 393.171 107.986 391.216 109.274C390.861 108.83 390.372 108.319 389.75 107.742C389.128 107.164 388.506 106.587 387.884 106.009C387.262 105.387 386.707 104.921 386.218 104.61C388.217 103.544 390.217 102.3 392.216 100.878C394.259 99.412 396.192 97.8793 398.013 96.28C399.835 94.6363 401.39 92.9925 402.678 91.3488ZM406.143 103.077C409.209 110.541 414.073 116.605 420.737 121.269C427.401 125.89 435.797 129.022 445.926 130.665C445.526 131.065 445.06 131.598 444.527 132.265C444.038 132.975 443.572 133.686 443.127 134.397C442.683 135.108 442.328 135.752 442.061 136.33C434.998 134.997 428.8 132.975 423.469 130.266C418.183 127.511 413.629 124.024 409.808 119.803C406.032 115.583 402.922 110.607 400.479 104.876L406.143 103.077ZM386.285 83.752H444.394V89.8827H386.285V83.752ZM422.603 94.7473L427.601 91.1489C429.555 92.4816 431.621 93.9921 433.798 95.6803C436.019 97.3684 438.107 99.0566 440.062 100.745C442.017 102.433 443.594 103.988 444.793 105.409L439.462 109.541C438.352 108.119 436.863 106.542 434.998 104.81C433.132 103.033 431.11 101.278 428.933 99.5453C426.757 97.7683 424.646 96.1689 422.603 94.7473ZM409.408 76.2219L415.406 74.1561C416.339 75.5333 417.272 77.066 418.205 78.7541C419.138 80.4423 419.826 81.8861 420.271 83.0856L414.007 85.4846C413.607 84.2407 412.963 82.7524 412.074 81.0198C411.23 79.2872 410.341 77.6879 409.408 76.2219ZM471.849 89.5495H512.698V95.8802H471.849V89.5495ZM498.237 75.6221H504.768V128.666C504.768 130.843 504.457 132.442 503.835 133.464C503.213 134.53 502.191 135.308 500.77 135.797C499.348 136.285 497.415 136.574 494.972 136.663C492.529 136.796 489.485 136.841 485.843 136.796C485.754 136.219 485.554 135.552 485.243 134.797C484.976 134.042 484.665 133.286 484.31 132.531C483.999 131.776 483.688 131.11 483.377 130.532C485.198 130.621 486.975 130.688 488.708 130.732C490.441 130.732 491.951 130.732 493.239 130.732C494.572 130.688 495.505 130.665 496.038 130.665C496.838 130.621 497.393 130.465 497.704 130.199C498.06 129.888 498.237 129.377 498.237 128.666V75.6221ZM475.58 104.543L481.045 101.944C482.155 103.632 483.31 105.454 484.51 107.409C485.754 109.319 486.931 111.207 488.042 113.073C489.152 114.894 490.041 116.471 490.707 117.804L484.776 120.936C484.154 119.559 483.333 117.937 482.311 116.072C481.289 114.161 480.178 112.207 478.979 110.207C477.779 108.164 476.647 106.276 475.58 104.543ZM460.587 93.6145L466.851 87.2838L466.917 87.4171V136.596H460.587V93.6145ZM467.517 75.2889L473.714 77.2215C472.248 81.0865 470.494 84.9071 468.45 88.6832C466.451 92.4594 464.274 96.0135 461.919 99.3454C459.565 102.677 457.144 105.609 454.656 108.142C454.478 107.653 454.145 107.009 453.656 106.209C453.212 105.365 452.723 104.543 452.19 103.743C451.702 102.899 451.257 102.233 450.857 101.744C453.079 99.6119 455.233 97.1463 457.321 94.3475C459.409 91.5043 461.32 88.4611 463.052 85.218C464.785 81.975 466.273 78.6653 467.517 75.2889Z" fill="#898989"/>
</svg>
