<svg width="632" height="204" viewBox="0 0 632 204" fill="none" xmlns="http://www.w3.org/2000/svg">
<rect x="3.70215" y="3.70215" width="623.94" height="195.86" rx="97.93" fill="black" fill-opacity="0.1"/>
<rect x="1.85108" y="1.85108" width="627.642" height="199.562" rx="99.7811" stroke="#777777" stroke-opacity="0.24" stroke-width="3.70213"/>
<path d="M186.57 109.274H212.092V114.472H186.57V109.274ZM185.304 87.0173H217.623V92.0818H185.304V87.0173ZM211.16 75.9553L216.424 78.1544C215.402 79.6649 214.358 81.1753 213.292 82.6858C212.27 84.1518 211.315 85.4402 210.427 86.5508L206.362 84.6849C206.939 83.8853 207.517 82.9746 208.094 81.9528C208.672 80.8866 209.227 79.8426 209.76 78.8208C210.293 77.7546 210.76 76.7994 211.16 75.9553ZM198.565 74.8225H204.429V104.343H198.565V74.8225ZM187.436 78.1544L191.968 76.2885C192.901 77.6213 193.767 79.0873 194.567 80.6866C195.366 82.2415 195.899 83.5965 196.166 84.7516L191.368 86.884C191.101 85.6845 190.591 84.2851 189.835 82.6858C189.08 81.042 188.28 79.5316 187.436 78.1544ZM198.765 89.0831L202.896 91.6153C201.83 93.3923 200.453 95.2138 198.765 97.0797C197.077 98.9011 195.255 100.589 193.3 102.144C191.39 103.699 189.502 105.01 187.636 106.076C187.281 105.365 186.77 104.543 186.104 103.61C185.482 102.677 184.882 101.922 184.304 101.345C186.126 100.589 187.947 99.5675 189.769 98.2792C191.635 96.9908 193.345 95.547 194.9 93.9477C196.499 92.3483 197.787 90.7268 198.765 89.0831ZM203.629 90.6157C204.207 90.9267 205.073 91.4376 206.228 92.1484C207.383 92.8148 208.605 93.5478 209.893 94.3475C211.226 95.1027 212.426 95.8357 213.492 96.5466C214.558 97.2129 215.313 97.7016 215.758 98.0126L212.359 102.477C211.781 101.944 210.982 101.256 209.96 100.412C208.938 99.5675 207.828 98.679 206.628 97.746C205.473 96.8131 204.34 95.9468 203.23 95.1472C202.163 94.3475 201.275 93.7033 200.564 93.2146L203.629 90.6157ZM222.688 87.5504H245.678V93.3479H222.688V87.5504ZM223.554 75.2889L229.352 76.0886C228.73 80.4867 227.908 84.7294 226.886 88.8165C225.864 92.8592 224.643 96.6354 223.221 100.145C221.844 103.61 220.245 106.653 218.423 109.274C218.112 108.963 217.668 108.541 217.09 108.008C216.513 107.475 215.913 106.987 215.291 106.542C214.714 106.054 214.203 105.654 213.758 105.343C215.535 103.033 217.046 100.278 218.29 97.0797C219.578 93.881 220.644 90.438 221.488 86.7507C222.377 83.019 223.066 79.1984 223.554 75.2889ZM235.682 91.0156L241.547 91.5487C240.525 99.101 239.014 105.765 237.015 111.54C235.06 117.271 232.351 122.247 228.885 126.467C225.42 130.643 220.978 134.153 215.558 136.996C215.38 136.552 215.091 135.996 214.691 135.33C214.292 134.708 213.869 134.064 213.425 133.398C212.981 132.776 212.559 132.265 212.159 131.865C217.224 129.466 221.333 126.401 224.487 122.669C227.686 118.937 230.151 114.45 231.884 109.208C233.661 103.921 234.927 97.8571 235.682 91.0156ZM226.02 92.4816C226.997 98.2569 228.374 103.677 230.151 108.741C231.928 113.806 234.216 118.271 237.015 122.136C239.858 126.001 243.257 129.022 247.211 131.198C246.544 131.732 245.811 132.487 245.012 133.464C244.212 134.486 243.568 135.374 243.079 136.13C238.859 133.553 235.283 130.177 232.351 126.001C229.463 121.78 227.086 116.916 225.22 111.407C223.399 105.854 221.911 99.8563 220.755 93.4146L226.02 92.4816ZM188.636 121.069L192.434 117.404C194.789 118.293 197.254 119.381 199.831 120.67C202.408 121.914 204.829 123.18 207.095 124.468C209.405 125.712 211.359 126.889 212.959 128L209.16 132.131C207.605 130.976 205.673 129.732 203.363 128.4C201.097 127.022 198.676 125.69 196.099 124.401C193.523 123.113 191.035 122.002 188.636 121.069ZM210.093 109.274H211.16L212.159 109.075L215.558 110.341C214.18 115.227 212.115 119.403 209.36 122.869C206.606 126.289 203.363 129.088 199.631 131.265C195.899 133.442 191.812 135.13 187.37 136.33C187.103 135.619 186.681 134.775 186.104 133.797C185.526 132.864 184.993 132.109 184.504 131.532C188.503 130.643 192.234 129.288 195.699 127.467C199.209 125.601 202.208 123.224 204.696 120.336C207.183 117.449 208.983 114.028 210.093 110.074V109.274ZM188.636 121.069C189.658 119.692 190.679 118.093 191.701 116.271C192.723 114.45 193.7 112.584 194.633 110.674C195.611 108.719 196.432 106.875 197.099 105.143L202.63 106.209C201.919 108.075 201.075 109.985 200.098 111.94C199.12 113.895 198.121 115.783 197.099 117.604C196.121 119.381 195.189 120.958 194.3 122.336L188.636 121.069ZM277.731 77.6879H310.651V95.8802H277.864V90.4158H304.653V83.1523H277.731V77.6879ZM274.732 77.6879H280.863V97.946C280.863 100.789 280.774 103.899 280.597 107.275C280.419 110.652 280.041 114.095 279.464 117.604C278.886 121.114 278.042 124.512 276.932 127.8C275.821 131.087 274.355 134.086 272.533 136.796C272.178 136.396 271.667 135.952 271.001 135.463C270.379 135.019 269.735 134.575 269.068 134.131C268.402 133.686 267.824 133.375 267.336 133.198C269.068 130.665 270.423 127.911 271.401 124.934C272.378 121.958 273.111 118.893 273.6 115.738C274.088 112.584 274.399 109.497 274.533 106.476C274.666 103.41 274.732 100.567 274.732 97.946V77.6879ZM277.864 102.611H312.716V107.942H277.864V102.611ZM283.729 129.266H307.718V134.397H283.729V129.266ZM292.458 95.2804H298.456V117.804H292.458V95.2804ZM281.063 115.405H310.917V136.596H305.186V120.67H286.594V136.729H281.063V115.405ZM250.543 109.608C253.208 108.941 256.407 108.075 260.139 107.009C263.915 105.943 267.713 104.832 271.534 103.677L272.333 109.408C268.824 110.474 265.292 111.562 261.738 112.673C258.184 113.784 254.941 114.783 252.009 115.672L250.543 109.608ZM251.476 87.9502H272.2V93.8144H251.476V87.9502ZM259.206 74.9557H265.003V129.133C265.003 130.688 264.826 131.909 264.47 132.798C264.159 133.686 263.537 134.397 262.604 134.93C261.716 135.419 260.561 135.73 259.139 135.863C257.762 136.041 255.985 136.107 253.808 136.063C253.764 135.308 253.564 134.353 253.208 133.198C252.897 132.087 252.542 131.11 252.142 130.266C253.475 130.31 254.697 130.332 255.807 130.332C256.918 130.332 257.673 130.332 258.073 130.332C258.473 130.332 258.761 130.243 258.939 130.066C259.117 129.888 259.206 129.577 259.206 129.133V74.9557ZM335.507 102.078V105.809H364.961V102.078H335.507ZM335.507 94.2809V98.0126H364.961V94.2809H335.507ZM329.243 89.9494H371.558V110.207H329.243V89.9494ZM332.641 74.8891L338.305 76.6217C337.106 79.1095 335.64 81.5529 333.907 83.9519C332.219 86.3509 330.375 88.5722 328.376 90.6157C326.422 92.6593 324.422 94.4586 322.379 96.0135C322.112 95.6136 321.735 95.1027 321.246 94.4808C320.757 93.8588 320.246 93.2369 319.713 92.6149C319.225 91.9929 318.78 91.5043 318.381 91.1489C321.179 89.2386 323.867 86.8618 326.444 84.0186C329.065 81.1309 331.131 78.0877 332.641 74.8891ZM332.641 81.0198H376.156V86.2176H330.042L332.641 81.0198ZM337.839 108.475L343.237 110.407C341.815 112.451 340.127 114.45 338.172 116.405C336.262 118.315 334.218 120.092 332.041 121.736C329.909 123.38 327.799 124.823 325.711 126.067C325.4 125.667 324.978 125.223 324.445 124.735C323.912 124.246 323.356 123.757 322.779 123.269C322.246 122.735 321.757 122.313 321.313 122.002C324.467 120.447 327.532 118.493 330.509 116.138C333.53 113.739 335.973 111.185 337.839 108.475ZM335.707 113.806H366.36V118.471H331.442L335.707 113.806ZM364.628 113.806H365.894L366.893 113.539L370.825 116.005C368.47 119.381 365.449 122.269 361.762 124.668C358.119 127.067 354.01 129.088 349.434 130.732C344.858 132.331 340.038 133.597 334.973 134.53C329.953 135.508 324.889 136.241 319.78 136.729C319.602 135.93 319.269 134.975 318.78 133.864C318.336 132.798 317.87 131.909 317.381 131.198C322.268 130.843 327.11 130.288 331.908 129.533C336.706 128.733 341.237 127.667 345.502 126.334C349.767 125.001 353.543 123.357 356.831 121.403C360.118 119.448 362.717 117.182 364.628 114.606V113.806ZM335.973 116.738C337.972 118.915 340.46 120.847 343.437 122.535C346.413 124.179 349.812 125.556 353.632 126.667C357.453 127.778 361.584 128.666 366.027 129.333C370.469 129.999 375.112 130.443 379.954 130.665C379.288 131.332 378.622 132.198 377.955 133.264C377.333 134.375 376.845 135.352 376.489 136.196C371.602 135.797 366.938 135.175 362.495 134.33C358.053 133.486 353.877 132.354 349.967 130.932C346.102 129.51 342.615 127.778 339.505 125.734C336.395 123.646 333.707 121.225 331.442 118.471L335.973 116.738ZM398.546 79.8203H433.865V84.8849H398.546V79.8203ZM385.352 94.1476H445.926V99.6119H385.352V94.1476ZM395.681 79.8203H401.878V91.6153C401.878 94.0587 401.612 96.6576 401.079 99.412C400.59 102.122 399.59 104.743 398.08 107.275C396.569 109.808 394.304 112.029 391.283 113.939C391.016 113.495 390.594 112.984 390.017 112.406C389.484 111.829 388.906 111.274 388.284 110.741C387.662 110.207 387.129 109.808 386.685 109.541C389.35 107.853 391.327 105.987 392.616 103.943C393.904 101.9 394.726 99.8118 395.081 97.6794C395.481 95.5026 395.681 93.4146 395.681 91.4154V79.8203ZM430.733 79.8203H437.063V105.943C437.063 107.32 436.863 108.43 436.464 109.274C436.108 110.074 435.375 110.696 434.265 111.14C433.243 111.585 431.932 111.851 430.333 111.94C428.734 112.029 426.801 112.073 424.535 112.073C424.402 111.318 424.158 110.43 423.802 109.408C423.447 108.386 423.047 107.52 422.603 106.809C424.069 106.853 425.468 106.875 426.801 106.875C428.178 106.875 429.089 106.853 429.533 106.809C430.333 106.809 430.733 106.476 430.733 105.809V79.8203ZM412.407 74.2227L419.271 75.4889C418.649 76.9105 418.027 78.221 417.405 79.4205C416.828 80.62 416.272 81.6862 415.739 82.6192L409.675 81.353C410.164 80.3312 410.675 79.154 411.208 77.8212C411.741 76.444 412.141 75.2445 412.407 74.2227ZM408.276 88.9498L411.274 85.2847C412.518 85.7289 413.807 86.3065 415.139 87.0173C416.472 87.6837 417.716 88.3723 418.871 89.0831C420.071 89.7939 421.07 90.5047 421.87 91.2155L418.671 95.1472C417.96 94.4808 417.027 93.77 415.872 93.0147C414.717 92.2595 413.473 91.5265 412.141 90.8157C410.808 90.0604 409.52 89.4385 408.276 88.9498ZM407.609 103.61L410.741 99.9451C411.985 100.478 413.296 101.122 414.673 101.878C416.05 102.588 417.361 103.321 418.605 104.077C419.893 104.832 420.937 105.543 421.737 106.209L418.538 110.207C417.783 109.541 416.783 108.808 415.539 108.008C414.295 107.209 412.985 106.431 411.608 105.676C410.23 104.876 408.898 104.188 407.609 103.61ZM385.019 129.399H445.793V134.864H385.019V129.399ZM392.349 113.539H438.596V132.131H432.465V118.537H424.869V132.131H419.071V118.537H411.541V132.131H405.743V118.537H398.28V132.131H392.349V113.539Z" fill="#898989"/>
</svg>
