<svg width="632" height="204" viewBox="0 0 632 204" fill="none" xmlns="http://www.w3.org/2000/svg">
<rect x="3.70215" y="3.70215" width="623.94" height="195.86" rx="97.93" fill="black" fill-opacity="0.1"/>
<rect x="1.85108" y="1.85108" width="627.642" height="199.562" rx="99.7811" stroke="#777777" stroke-opacity="0.24" stroke-width="3.70213"/>
<path d="M190.901 77.3547H239.947V82.2193H190.901V77.3547ZM186.237 107.075H244.945V112.073H186.237V107.075ZM195.3 92.9481H209.294V96.8798H195.3V92.9481ZM193.834 99.8785H209.36V103.81H193.834V99.8785ZM221.289 99.8785H237.215V103.877H221.289V99.8785ZM221.289 92.9481H235.616V96.8798H221.289V92.9481ZM212.292 79.2206H218.356V105.076H212.292V79.2206ZM205.762 119.603H211.559V136.196H205.762V119.603ZM220.356 119.603H226.087V136.196H220.356V119.603ZM186.77 85.4846H244.345V98.4791H238.415V89.8827H192.434V98.4791H186.77V85.4846ZM191.301 116.205H236.615V121.269H197.232V136.596H191.301V116.205ZM235.216 116.205H241.28V130.732C241.28 132.109 241.125 133.175 240.814 133.931C240.503 134.73 239.881 135.33 238.948 135.73C238.015 136.174 236.882 136.441 235.549 136.53C234.216 136.618 232.661 136.663 230.884 136.663C230.751 135.908 230.485 135.041 230.085 134.064C229.729 133.087 229.352 132.22 228.952 131.465C230.151 131.509 231.24 131.532 232.217 131.532C233.239 131.532 233.928 131.532 234.283 131.532C234.638 131.487 234.883 131.398 235.016 131.265C235.149 131.176 235.216 130.976 235.216 130.665V116.205ZM212.359 109.008L219.223 109.208C218.601 111.074 217.934 112.895 217.224 114.672C216.557 116.449 215.935 118.004 215.358 119.337L209.827 118.804C210.315 117.382 210.804 115.761 211.293 113.939C211.781 112.118 212.137 110.474 212.359 109.008ZM252.942 85.5512H311.583V91.682H252.942V85.5512ZM284.728 91.0156C285.972 94.7473 287.527 98.368 289.393 101.878C291.259 105.343 293.413 108.608 295.857 111.673C298.3 114.694 300.988 117.382 303.92 119.737C306.852 122.091 310.029 124.002 313.449 125.468C312.961 125.912 312.405 126.467 311.783 127.134C311.206 127.755 310.651 128.422 310.117 129.133C309.629 129.799 309.207 130.443 308.851 131.065C304.187 128.711 300.011 125.601 296.323 121.736C292.636 117.871 289.415 113.45 286.661 108.475C283.906 103.455 281.618 98.1237 279.797 92.4816L284.728 91.0156ZM303.653 94.2142L309.184 98.0792C307.718 99.7674 306.119 101.522 304.387 103.344C302.654 105.121 300.921 106.809 299.189 108.408C297.456 110.007 295.835 111.451 294.324 112.74L289.726 109.208C291.192 107.964 292.791 106.498 294.524 104.81C296.257 103.077 297.923 101.278 299.522 99.412C301.121 97.5461 302.498 95.8135 303.653 94.2142ZM290.592 79.0207L294.324 75.0224C295.701 75.6888 297.167 76.444 298.722 77.2881C300.277 78.1322 301.765 78.9985 303.187 79.887C304.609 80.7755 305.764 81.5974 306.652 82.3526L302.721 86.8174C301.832 86.0177 300.699 85.1736 299.322 84.2851C297.945 83.3522 296.479 82.4192 294.924 81.4863C293.413 80.5534 291.97 79.7315 290.592 79.0207ZM255.874 98.2792L260.672 95.0139C262.049 96.1689 263.471 97.4795 264.937 98.9455C266.403 100.412 267.735 101.878 268.935 103.344C270.179 104.765 271.156 106.076 271.867 107.275L266.736 111.074C266.069 109.874 265.137 108.519 263.937 107.009C262.782 105.498 261.494 103.988 260.072 102.477C258.65 100.922 257.251 99.5231 255.874 98.2792ZM278.731 75.0224H285.195V128.6C285.195 130.643 284.95 132.176 284.462 133.198C283.973 134.264 283.107 135.041 281.863 135.53C280.619 136.107 278.953 136.463 276.865 136.596C274.777 136.774 272.245 136.841 269.268 136.796C269.135 135.908 268.846 134.819 268.402 133.531C268.002 132.242 267.558 131.132 267.069 130.199C269.246 130.243 271.289 130.288 273.2 130.332C275.11 130.332 276.398 130.31 277.065 130.266C277.687 130.266 278.109 130.154 278.331 129.932C278.597 129.666 278.731 129.222 278.731 128.6V75.0224ZM251.209 124.401C253.564 123.246 256.34 121.802 259.539 120.07C262.782 118.293 266.203 116.383 269.801 114.339C273.4 112.295 276.932 110.274 280.397 108.275L282.263 113.539C279.242 115.494 276.132 117.471 272.933 119.47C269.735 121.425 266.625 123.313 263.604 125.134C260.627 126.956 257.851 128.622 255.274 130.132L251.209 124.401ZM328.176 99.7452H365.361V106.009H328.176V99.7452ZM363.295 99.7452H369.892C369.892 99.7452 369.87 99.9451 369.825 100.345C369.825 100.7 369.825 101.1 369.825 101.544C369.825 101.989 369.803 102.344 369.759 102.611C369.537 107.675 369.292 112.007 369.026 115.605C368.804 119.159 368.537 122.136 368.226 124.535C367.959 126.889 367.626 128.755 367.226 130.132C366.827 131.509 366.316 132.531 365.694 133.198C364.939 134.131 364.117 134.775 363.228 135.13C362.384 135.53 361.362 135.797 360.163 135.93C359.008 136.019 357.497 136.063 355.631 136.063C353.765 136.063 351.811 136.019 349.767 135.93C349.723 134.997 349.501 133.931 349.101 132.731C348.745 131.532 348.279 130.488 347.701 129.599C349.745 129.777 351.633 129.888 353.366 129.932C355.143 129.932 356.431 129.932 357.231 129.932C358.475 129.932 359.385 129.666 359.963 129.133C360.54 128.511 361.029 127.2 361.429 125.201C361.829 123.202 362.162 120.248 362.428 116.338C362.739 112.384 363.028 107.231 363.295 100.878V99.7452ZM336.573 76.022L343.303 77.8878C341.793 81.664 339.971 85.3069 337.839 88.8165C335.751 92.2817 333.485 95.4803 331.042 98.4124C328.598 101.345 326.066 103.899 323.445 106.076C323.045 105.587 322.512 105.054 321.846 104.477C321.179 103.855 320.491 103.233 319.78 102.611C319.114 101.989 318.536 101.5 318.047 101.145C320.668 99.2343 323.134 96.9686 325.444 94.3475C327.799 91.7264 329.931 88.8609 331.841 85.7512C333.752 82.5969 335.329 79.3539 336.573 76.022ZM360.763 75.8887C361.784 78.0655 363.028 80.309 364.494 82.6192C365.96 84.8849 367.537 87.1061 369.226 89.283C370.914 91.4598 372.669 93.4812 374.49 95.3471C376.311 97.1685 378.088 98.7678 379.821 100.145C379.332 100.545 378.755 101.056 378.088 101.678C377.422 102.3 376.8 102.944 376.223 103.61C375.645 104.277 375.156 104.899 374.757 105.476C372.98 103.832 371.18 101.989 369.359 99.9451C367.537 97.8571 365.738 95.6136 363.961 93.2146C362.229 90.7712 360.585 88.2834 359.03 85.7512C357.475 83.2189 356.098 80.6866 354.898 78.1544L360.763 75.8887ZM340.571 101.544H347.235C346.835 105.232 346.258 108.808 345.502 112.273C344.747 115.738 343.548 119.026 341.904 122.136C340.26 125.245 337.972 128.066 335.04 130.599C332.108 133.087 328.265 135.197 323.512 136.929C323.245 136.352 322.89 135.73 322.445 135.063C322.001 134.397 321.513 133.731 320.979 133.064C320.491 132.442 320.002 131.909 319.513 131.465C323.912 129.999 327.443 128.2 330.109 126.067C332.774 123.935 334.796 121.558 336.173 118.937C337.595 116.271 338.594 113.473 339.172 110.541C339.794 107.609 340.26 104.61 340.571 101.544ZM417.072 97.5461H446.193V103.544H417.072V97.5461ZM437.13 75.6221L442.461 80.5534C440.018 81.5307 437.308 82.4637 434.331 83.3522C431.355 84.1963 428.312 84.9515 425.202 85.6179C422.092 86.2843 419.049 86.884 416.072 87.4171C415.939 86.6619 415.65 85.7734 415.206 84.7516C414.806 83.7298 414.406 82.8857 414.007 82.2193C416.805 81.6862 419.626 81.0865 422.47 80.4201C425.313 79.7093 428.001 78.954 430.533 78.1544C433.109 77.3103 435.309 76.4662 437.13 75.6221ZM430.733 99.4786H436.93V136.729H430.733V99.4786ZM385.685 88.9498H410.875V94.9472H385.685V88.9498ZM395.281 74.8891H401.345V136.663H395.281V74.8891ZM395.081 92.8148L398.946 94.1476C398.413 96.8575 397.725 99.6341 396.88 102.477C396.036 105.321 395.081 108.119 394.015 110.874C392.993 113.628 391.883 116.205 390.683 118.604C389.528 120.958 388.306 122.98 387.018 124.668C386.663 123.824 386.174 122.846 385.552 121.736C384.93 120.625 384.375 119.67 383.886 118.87C385.085 117.404 386.241 115.672 387.351 113.673C388.462 111.629 389.506 109.43 390.483 107.075C391.505 104.721 392.393 102.344 393.149 99.9451C393.948 97.5017 394.593 95.1249 395.081 92.8148ZM400.612 97.0797C401.056 97.6128 401.745 98.4791 402.678 99.6786C403.611 100.878 404.588 102.189 405.61 103.61C406.676 104.987 407.654 106.298 408.542 107.542C409.431 108.741 410.053 109.585 410.408 110.074L406.61 115.072C406.165 114.139 405.543 112.984 404.744 111.607C403.989 110.23 403.167 108.808 402.278 107.342C401.39 105.831 400.523 104.432 399.679 103.144C398.835 101.855 398.147 100.811 397.613 100.012L400.612 97.0797ZM414.007 82.2193H420.004V102.411C420.004 104.987 419.915 107.764 419.737 110.741C419.56 113.717 419.204 116.738 418.671 119.803C418.183 122.869 417.449 125.845 416.472 128.733C415.495 131.621 414.206 134.242 412.607 136.596C412.252 136.241 411.741 135.863 411.074 135.463C410.452 135.063 409.786 134.664 409.075 134.264C408.409 133.864 407.831 133.575 407.343 133.398C408.898 131.176 410.119 128.755 411.008 126.134C411.896 123.513 412.54 120.825 412.94 118.071C413.385 115.316 413.673 112.606 413.807 109.941C413.94 107.275 414.007 104.765 414.007 102.411V82.2193Z" fill="#898989"/>
</svg>
