<svg width="699" height="204" viewBox="0 0 699 204" fill="none" xmlns="http://www.w3.org/2000/svg">
<rect x="3.70215" y="3.70215" width="690.94" height="195.86" rx="97.93" fill="black" fill-opacity="0.1"/>
<rect x="1.85108" y="1.85108" width="694.642" height="199.562" rx="99.7811" stroke="#777777" stroke-opacity="0.24" stroke-width="3.70213"/>
<path d="M211.693 78.0211H243.279V113.473H236.949V83.4855H217.757V113.473H211.693V78.0211ZM226.62 112.806H232.484V128.733C232.484 129.666 232.639 130.31 232.95 130.665C233.261 130.976 233.817 131.132 234.616 131.132H239.014C239.725 131.132 240.258 130.843 240.614 130.266C240.969 129.688 241.213 128.622 241.347 127.067C241.48 125.468 241.591 123.135 241.68 120.07C242.435 120.692 243.279 121.203 244.212 121.603C245.145 122.002 245.989 122.291 246.744 122.469C246.567 125.934 246.256 128.644 245.811 130.599C245.367 132.509 244.634 133.842 243.612 134.597C242.635 135.397 241.102 135.797 239.014 135.797H233.55C231.107 135.797 229.33 135.352 228.219 134.464C227.153 133.62 226.62 131.954 226.62 129.466V112.806ZM224.154 88.0835H230.218V100.145C230.218 103.077 229.952 106.187 229.418 109.474C228.885 112.762 227.886 116.049 226.42 119.337C224.954 122.624 222.843 125.779 220.089 128.799C217.379 131.776 213.803 134.442 209.36 136.796C209.138 136.352 208.783 135.819 208.294 135.197C207.805 134.619 207.295 134.042 206.761 133.464C206.228 132.887 205.74 132.442 205.295 132.131C209.516 129.955 212.892 127.533 215.424 124.868C217.957 122.202 219.845 119.47 221.089 116.671C222.333 113.828 223.154 110.985 223.554 108.142C223.954 105.298 224.154 102.588 224.154 100.012V88.0835ZM186.104 86.2176H204.896V91.9485H186.104V86.2176ZM194.033 107.142L200.031 100.012V136.663H194.033V107.142ZM200.164 101.611C200.608 102.011 201.275 102.699 202.163 103.677C203.052 104.654 203.985 105.743 204.962 106.942C205.984 108.097 206.917 109.163 207.761 110.141C208.649 111.118 209.271 111.829 209.627 112.273L205.629 117.271C205.14 116.427 204.496 115.427 203.696 114.272C202.941 113.117 202.119 111.94 201.23 110.741C200.342 109.497 199.476 108.342 198.632 107.275C197.832 106.209 197.143 105.321 196.566 104.61L200.164 101.611ZM203.096 86.2176H204.429L205.562 85.9511L208.894 88.2834C207.472 92.3706 205.584 96.3244 203.23 100.145C200.919 103.966 198.365 107.475 195.566 110.674C192.812 113.828 189.991 116.471 187.103 118.604C186.97 117.982 186.748 117.249 186.437 116.405C186.126 115.561 185.793 114.761 185.437 114.006C185.082 113.206 184.749 112.606 184.438 112.207C187.059 110.474 189.591 108.297 192.034 105.676C194.478 103.01 196.655 100.101 198.565 96.9464C200.52 93.7922 202.03 90.6157 203.096 87.4171V86.2176ZM191.768 77.7546L196.632 75.0224C197.876 76.2663 199.076 77.6879 200.231 79.2872C201.43 80.8421 202.319 82.2193 202.896 83.4188L197.699 86.6175C197.165 85.3735 196.321 83.9297 195.166 82.286C194.056 80.5978 192.923 79.0873 191.768 77.7546ZM253.941 86.5508H310.584V100.545H303.987V92.1484H260.272V100.545H253.941V86.5508ZM299.322 75.4222L305.986 77.5546C304.564 79.6871 303.032 81.8417 301.388 84.0186C299.744 86.1954 298.234 88.0391 296.856 89.5495L291.792 87.5504C292.68 86.4397 293.591 85.1958 294.524 83.8186C295.457 82.397 296.345 80.9532 297.19 79.4872C298.078 78.0211 298.789 76.6661 299.322 75.4222ZM258.673 78.6875L264.004 76.1552C265.336 77.488 266.647 78.9985 267.935 80.6866C269.224 82.3304 270.201 83.7742 270.867 85.0181L265.137 87.7503C264.559 86.5064 263.648 85.0181 262.404 83.2855C261.205 81.5529 259.961 80.0203 258.673 78.6875ZM275.732 76.8883L281.196 75.0224C282.307 76.4884 283.395 78.1322 284.462 79.9536C285.528 81.7751 286.283 83.3522 286.727 84.6849L280.996 86.884C280.552 85.5512 279.819 83.9519 278.797 82.086C277.82 80.1757 276.798 78.4432 275.732 76.8883ZM284.861 118.404H291.125V128.133C291.125 129.022 291.325 129.577 291.725 129.799C292.169 130.021 293.102 130.132 294.524 130.132C294.835 130.132 295.39 130.132 296.19 130.132C296.99 130.132 297.878 130.132 298.856 130.132C299.877 130.132 300.81 130.132 301.654 130.132C302.543 130.132 303.209 130.132 303.653 130.132C304.453 130.132 305.053 129.999 305.453 129.732C305.853 129.421 306.141 128.799 306.319 127.867C306.497 126.934 306.63 125.534 306.719 123.668C307.119 123.979 307.652 124.29 308.318 124.601C308.985 124.868 309.651 125.134 310.317 125.401C311.028 125.623 311.672 125.779 312.25 125.867C312.028 128.444 311.65 130.421 311.117 131.798C310.584 133.22 309.784 134.197 308.718 134.73C307.652 135.263 306.164 135.53 304.253 135.53C303.987 135.53 303.476 135.53 302.721 135.53C302.01 135.53 301.21 135.53 300.322 135.53C299.433 135.53 298.522 135.53 297.589 135.53C296.701 135.53 295.901 135.53 295.19 135.53C294.524 135.53 294.035 135.53 293.724 135.53C291.325 135.53 289.482 135.308 288.193 134.864C286.949 134.464 286.083 133.709 285.595 132.598C285.106 131.532 284.861 130.066 284.861 128.2V118.404ZM278.531 105.943H285.128V112.94C285.128 114.45 284.928 116.049 284.528 117.738C284.173 119.381 283.462 121.069 282.396 122.802C281.33 124.49 279.775 126.178 277.731 127.867C275.688 129.51 273 131.11 269.668 132.665C266.38 134.219 262.271 135.663 257.34 136.996C257.073 136.507 256.718 135.952 256.274 135.33C255.829 134.753 255.319 134.153 254.741 133.531C254.208 132.953 253.675 132.465 253.142 132.065C257.895 130.954 261.805 129.755 264.87 128.466C267.98 127.178 270.445 125.867 272.267 124.535C274.133 123.202 275.51 121.869 276.398 120.536C277.287 119.159 277.864 117.804 278.131 116.471C278.398 115.139 278.531 113.895 278.531 112.74V105.943ZM262.071 97.4795H302.121V121.936H295.524V103.077H268.468V121.669H262.071V97.4795ZM331.508 100.345H370.558V106.209H331.508V100.345ZM334.64 83.6187H374.157V89.6828H334.64V83.6187ZM319.047 114.606H360.629V120.67H319.047V114.606ZM368.959 100.345H375.49C375.49 100.345 375.467 100.523 375.423 100.878C375.423 101.233 375.401 101.655 375.356 102.144C375.356 102.588 375.312 102.966 375.223 103.277C374.645 109.585 374.024 114.761 373.357 118.804C372.735 122.846 372.024 126.001 371.225 128.266C370.469 130.488 369.581 132.109 368.559 133.131C367.582 134.153 366.56 134.841 365.494 135.197C364.428 135.552 363.095 135.774 361.496 135.863C360.207 135.952 358.452 135.974 356.231 135.93C354.01 135.885 351.7 135.819 349.301 135.73C349.256 134.797 349.012 133.731 348.568 132.531C348.123 131.332 347.568 130.288 346.902 129.399C349.523 129.621 352.011 129.777 354.365 129.866C356.764 129.91 358.475 129.932 359.496 129.932C360.34 129.932 361.029 129.888 361.562 129.799C362.095 129.71 362.606 129.488 363.095 129.133C363.939 128.422 364.716 127 365.427 124.868C366.138 122.735 366.782 119.737 367.36 115.872C367.937 112.007 368.47 107.164 368.959 101.345V100.345ZM332.441 76.1552L338.839 76.8216C338.439 79.2206 337.972 81.7529 337.439 84.4184C336.95 87.0839 336.417 89.7495 335.84 92.415C335.307 95.0361 334.774 97.5461 334.24 99.9451C333.752 102.3 333.285 104.388 332.841 106.209H326.111C326.644 104.254 327.199 102.055 327.777 99.6119C328.354 97.1685 328.909 94.5918 329.443 91.8819C330.02 89.1719 330.553 86.4842 331.042 83.8186C331.575 81.1087 332.041 78.5542 332.441 76.1552ZM407.609 129.666H446.259V135.397H407.609V129.666ZM417.338 95.1472H438.529V100.811H417.338V95.1472ZM417.405 112.34H438.596V117.871H417.405V112.34ZM414.007 78.1544H440.662V132.598H434.398V83.9519H420.004V132.598H414.007V78.1544ZM387.085 119.337C386.996 118.937 386.84 118.426 386.618 117.804C386.396 117.138 386.152 116.449 385.885 115.738C385.663 115.028 385.419 114.428 385.152 113.939C385.952 113.806 386.774 113.362 387.618 112.606C388.462 111.851 389.439 110.852 390.55 109.608C391.172 109.03 392.038 108.053 393.149 106.676C394.259 105.298 395.503 103.677 396.88 101.811C398.302 99.9007 399.724 97.8349 401.145 95.6136C402.611 93.3923 403.944 91.1489 405.144 88.8832L410.075 91.9485C407.32 96.4799 404.3 100.878 401.012 105.143C397.725 109.408 394.393 113.139 391.016 116.338V116.471C391.016 116.471 390.816 116.582 390.417 116.805C390.017 116.982 389.55 117.227 389.017 117.538C388.528 117.804 388.084 118.115 387.684 118.471C387.285 118.782 387.085 119.07 387.085 119.337ZM387.085 119.337L386.751 114.539L389.55 112.54L409.075 109.075C408.986 109.874 408.942 110.785 408.942 111.807C408.942 112.829 408.964 113.628 409.009 114.206C404.522 115.094 400.923 115.827 398.213 116.405C395.503 116.982 393.415 117.449 391.949 117.804C390.483 118.16 389.395 118.448 388.684 118.67C388.018 118.893 387.484 119.115 387.085 119.337ZM386.618 103.21C386.485 102.811 386.307 102.277 386.085 101.611C385.863 100.9 385.619 100.167 385.352 99.412C385.085 98.6568 384.841 98.0126 384.619 97.4795C385.285 97.3462 385.93 96.9242 386.552 96.2134C387.173 95.5026 387.862 94.5918 388.617 93.4812C389.017 92.9037 389.595 91.9929 390.35 90.749C391.105 89.5051 391.927 88.0169 392.816 86.2843C393.748 84.5517 394.659 82.708 395.548 80.7533C396.481 78.7541 397.28 76.755 397.947 74.7558L403.678 77.4214C402.478 80.0869 401.123 82.7969 399.613 85.5512C398.147 88.2612 396.614 90.8601 395.015 93.3479C393.415 95.7913 391.772 98.0126 390.083 100.012V100.145C390.083 100.145 389.906 100.256 389.55 100.478C389.195 100.7 388.773 100.967 388.284 101.278C387.84 101.589 387.44 101.922 387.085 102.277C386.774 102.633 386.618 102.944 386.618 103.21ZM386.618 103.21L386.418 98.8123L389.15 97.013L401.678 95.8802C401.545 96.591 401.412 97.4573 401.279 98.4791C401.19 99.4564 401.168 100.256 401.212 100.878C398.369 101.189 396.036 101.478 394.215 101.744C392.438 101.966 391.039 102.166 390.017 102.344C389.039 102.522 388.284 102.677 387.751 102.811C387.262 102.944 386.885 103.077 386.618 103.21ZM385.219 126.667C387.173 126.312 389.395 125.867 391.883 125.334C394.37 124.757 397.014 124.135 399.813 123.468C402.611 122.802 405.432 122.158 408.276 121.536L408.875 126.8C404.966 127.822 401.012 128.866 397.014 129.932C393.06 130.954 389.506 131.887 386.352 132.731L385.219 126.667ZM488.508 75.6888H494.839V136.729H488.508V75.6888ZM477.046 78.3543L483.11 79.6204C482.533 82.6414 481.8 85.6623 480.911 88.6832C480.023 91.6597 479.023 94.4363 477.913 97.013C476.846 99.5897 475.691 101.878 474.447 103.877C474.048 103.566 473.515 103.233 472.848 102.877C472.182 102.477 471.493 102.1 470.782 101.744C470.116 101.345 469.516 101.034 468.983 100.811C470.271 98.99 471.427 96.8797 472.448 94.4808C473.47 92.0818 474.359 89.5051 475.114 86.7507C475.913 83.9963 476.558 81.1975 477.046 78.3543ZM478.579 88.2168H509.566V94.4141H476.98L478.579 88.2168ZM469.783 107.675H512.631V113.873H469.783V107.675ZM465.851 75.1557L471.782 76.9549C470.405 80.7311 468.761 84.485 466.851 88.2168C464.985 91.9041 462.941 95.4137 460.72 98.7456C458.543 102.033 456.277 104.943 453.923 107.475C453.745 106.942 453.434 106.276 452.99 105.476C452.59 104.676 452.146 103.877 451.657 103.077C451.213 102.233 450.813 101.567 450.458 101.078C452.501 98.9455 454.456 96.5021 456.322 93.7477C458.232 90.9489 460.009 87.9724 461.653 84.8182C463.297 81.6196 464.696 78.3987 465.851 75.1557ZM459.121 92.8148L465.118 86.884L465.185 86.9506V136.663H459.121V92.8148Z" fill="#898989"/>
</svg>
