<svg width="632" height="204" viewBox="0 0 632 204" fill="none" xmlns="http://www.w3.org/2000/svg">
<rect x="3.70215" y="3.70215" width="623.94" height="195.86" rx="97.93" fill="black" fill-opacity="0.1"/>
<rect x="1.85108" y="1.85108" width="627.642" height="199.562" rx="99.7811" stroke="#777777" stroke-opacity="0.24" stroke-width="3.70213"/>
<path d="M195.633 79.4872H237.815V85.4846H195.633V79.4872ZM195.633 94.9472H237.815V100.811H195.633V94.9472ZM195.366 110.741H238.015V116.738H195.366V110.741ZM192.034 79.4872H198.298V103.544C198.298 106.12 198.165 108.897 197.899 111.873C197.676 114.85 197.254 117.871 196.632 120.936C196.01 123.957 195.077 126.867 193.834 129.666C192.634 132.42 191.013 134.908 188.969 137.129C188.658 136.685 188.192 136.196 187.57 135.663C186.992 135.13 186.37 134.619 185.704 134.131C185.082 133.642 184.526 133.264 184.038 132.998C185.904 130.91 187.37 128.666 188.436 126.267C189.502 123.824 190.28 121.314 190.768 118.737C191.301 116.116 191.635 113.517 191.768 110.94C191.945 108.319 192.034 105.831 192.034 103.477V79.4872ZM235.416 79.4872H241.68V128.799C241.68 130.621 241.436 132.02 240.947 132.998C240.458 134.019 239.614 134.797 238.415 135.33C237.215 135.819 235.594 136.107 233.55 136.196C231.506 136.33 228.908 136.374 225.753 136.33C225.664 135.53 225.398 134.53 224.954 133.331C224.554 132.131 224.132 131.11 223.688 130.266C225.109 130.354 226.509 130.421 227.886 130.465C229.263 130.465 230.462 130.465 231.484 130.465C232.55 130.421 233.283 130.399 233.683 130.399C234.35 130.399 234.794 130.288 235.016 130.066C235.283 129.799 235.416 129.355 235.416 128.733V79.4872ZM212.825 81.8195H219.156V136.063H212.825V81.8195ZM259.339 85.0848H265.936V99.8785C265.936 102.633 265.825 105.632 265.603 108.875C265.381 112.118 264.914 115.427 264.204 118.804C263.537 122.136 262.56 125.379 261.272 128.533C260.028 131.687 258.384 134.575 256.34 137.196C255.94 136.796 255.407 136.33 254.741 135.797C254.075 135.308 253.386 134.819 252.675 134.33C251.964 133.886 251.342 133.553 250.809 133.331C252.764 130.932 254.297 128.311 255.407 125.468C256.562 122.624 257.407 119.714 257.94 116.738C258.517 113.717 258.895 110.785 259.072 107.942C259.25 105.054 259.339 102.366 259.339 99.8785V85.0848ZM277.531 76.0886L283.729 74.4893C284.528 75.9997 285.284 77.6435 285.994 79.4205C286.75 81.1975 287.327 82.7302 287.727 84.0186L281.263 85.9511C280.908 84.6183 280.375 83.0412 279.664 81.2197C278.953 79.3539 278.242 77.6435 277.531 76.0886ZM263.471 85.0848H305.786V112.94H299.322V90.9489H263.471V85.0848ZM263.604 103.077H302.654V108.941H263.604V103.077ZM345.902 78.4209H378.355V84.2851H345.902V78.4209ZM344.103 102.277H379.688V108.275H344.103V102.277ZM366.427 80.8866H372.424V136.729H366.427V80.8866ZM351.033 81.0865H356.964V104.077C356.964 106.875 356.853 109.763 356.631 112.74C356.409 115.672 355.965 118.604 355.298 121.536C354.676 124.424 353.743 127.2 352.499 129.866C351.255 132.531 349.589 134.952 347.501 137.129C347.146 136.729 346.68 136.307 346.102 135.863C345.569 135.419 344.991 134.975 344.369 134.53C343.748 134.086 343.192 133.731 342.704 133.464C344.569 131.509 346.058 129.333 347.168 126.934C348.279 124.49 349.101 121.958 349.634 119.337C350.211 116.716 350.589 114.117 350.767 111.54C350.944 108.919 351.033 106.431 351.033 104.077V81.0865ZM318.58 78.2877H342.437V84.0186H318.58V78.2877ZM325.644 98.8123H341.437V128.466H325.644V122.869H335.973V104.41H325.644V98.8123ZM326.91 81.0865L332.708 82.3526C331.908 86.5286 330.909 90.6602 329.709 94.7473C328.51 98.8345 327.088 102.655 325.444 106.209C323.845 109.763 321.957 112.873 319.78 115.538C319.691 115.005 319.491 114.295 319.18 113.406C318.914 112.473 318.603 111.562 318.247 110.674C317.936 109.741 317.603 108.986 317.248 108.408C319.736 105.076 321.757 101.034 323.312 96.28C324.867 91.482 326.066 86.4175 326.91 81.0865ZM322.912 98.8123H328.243V133.664H322.912V98.8123ZM390.017 106.942H429.133V112.74H390.017V106.942ZM425.268 106.942H431.732V127.267C431.732 128.244 431.843 128.888 432.065 129.199C432.332 129.466 432.865 129.599 433.665 129.599C433.843 129.599 434.131 129.599 434.531 129.599C434.975 129.599 435.464 129.599 435.997 129.599C436.575 129.599 437.086 129.599 437.53 129.599C437.974 129.599 438.307 129.599 438.529 129.599C439.107 129.599 439.529 129.377 439.796 128.933C440.107 128.489 440.329 127.578 440.462 126.201C440.595 124.779 440.684 122.647 440.728 119.803C441.173 120.159 441.728 120.514 442.394 120.87C443.105 121.225 443.838 121.536 444.593 121.802C445.349 122.069 445.993 122.291 446.526 122.469C446.348 125.934 446.015 128.622 445.526 130.532C445.038 132.442 444.283 133.775 443.261 134.53C442.283 135.286 440.928 135.663 439.196 135.663C438.885 135.663 438.418 135.663 437.796 135.663C437.219 135.663 436.575 135.663 435.864 135.663C435.153 135.663 434.509 135.663 433.931 135.663C433.354 135.663 432.91 135.663 432.599 135.663C430.733 135.663 429.267 135.419 428.2 134.93C427.134 134.442 426.379 133.597 425.935 132.398C425.491 131.198 425.268 129.51 425.268 127.333V106.942ZM407.209 100.878H413.673V109.941C413.673 112.295 413.385 114.717 412.807 117.204C412.229 119.648 411.119 122.069 409.475 124.468C407.876 126.867 405.477 129.088 402.278 131.132C399.124 133.22 394.926 135.041 389.684 136.596C389.195 135.797 388.528 134.886 387.684 133.864C386.885 132.887 386.085 132.065 385.285 131.398C390.128 129.977 393.993 128.4 396.88 126.667C399.813 124.934 402.012 123.113 403.478 121.203C404.988 119.248 405.988 117.293 406.476 115.339C406.965 113.384 407.209 111.54 407.209 109.808V100.878ZM386.818 81.8195H444.06V93.4146H437.397V87.3505H393.149V93.9477H386.818V81.8195ZM407.343 89.1497L412.474 92.0818C410.519 93.6367 408.409 95.1249 406.143 96.5466C403.877 97.9682 401.567 99.2787 399.213 100.478C396.858 101.678 394.615 102.699 392.482 103.544L388.417 99.0122C390.417 98.3014 392.527 97.4573 394.748 96.4799C397.014 95.4581 399.235 94.3253 401.412 93.0814C403.589 91.8375 405.566 90.5269 407.343 89.1497ZM419.138 92.5483L423.403 89.1497C425.535 90.0826 427.801 91.1711 430.2 92.415C432.643 93.6589 434.975 94.925 437.197 96.2134C439.418 97.4573 441.284 98.6346 442.794 99.7452L438.263 103.61C436.886 102.5 435.109 101.278 432.932 99.9451C430.799 98.6123 428.511 97.3018 426.068 96.0135C423.669 94.6807 421.359 93.5256 419.138 92.5483ZM409.608 75.9553L416.272 74.2894C417.027 75.6221 417.805 77.1104 418.605 78.7541C419.404 80.3534 420.004 81.7084 420.404 82.8191L413.34 84.8182C413.029 83.6632 412.496 82.2415 411.741 80.5534C411.03 78.8652 410.319 77.3325 409.608 75.9553Z" fill="#898989"/>
</svg>
