<svg width="632" height="204" viewBox="0 0 632 204" fill="none" xmlns="http://www.w3.org/2000/svg">
<rect x="3.70215" y="3.70215" width="623.94" height="195.86" rx="97.93" fill="black" fill-opacity="0.1"/>
<rect x="1.85108" y="1.85108" width="627.642" height="199.562" rx="99.7811" stroke="#777777" stroke-opacity="0.24" stroke-width="3.70213"/>
<path d="M225.02 102.744L231.418 104.61C228.93 110.607 225.642 115.716 221.555 119.937C217.512 124.113 212.759 127.556 207.295 130.266C201.83 132.931 195.744 135.108 189.036 136.796C188.813 136.307 188.48 135.708 188.036 134.997C187.592 134.286 187.103 133.575 186.57 132.864C186.081 132.154 185.637 131.576 185.237 131.132C191.812 129.799 197.721 127.955 202.963 125.601C208.205 123.202 212.692 120.137 216.424 116.405C220.156 112.673 223.021 108.119 225.02 102.744ZM202.763 91.3488L208.894 93.7477C207.339 95.658 205.562 97.5683 203.563 99.4786C201.608 101.389 199.564 103.188 197.432 104.876C195.3 106.52 193.256 107.986 191.301 109.274C190.946 108.83 190.457 108.319 189.835 107.742C189.213 107.164 188.591 106.587 187.969 106.009C187.347 105.387 186.792 104.921 186.303 104.61C188.303 103.544 190.302 102.3 192.301 100.878C194.344 99.412 196.277 97.8793 198.098 96.28C199.92 94.6363 201.475 92.9925 202.763 91.3488ZM206.228 103.077C209.294 110.541 214.158 116.605 220.822 121.269C227.486 125.89 235.882 129.022 246.011 130.665C245.612 131.065 245.145 131.598 244.612 132.265C244.123 132.975 243.657 133.686 243.213 134.397C242.768 135.108 242.413 135.752 242.146 136.33C235.083 134.997 228.885 132.975 223.554 130.266C218.268 127.511 213.714 124.024 209.893 119.803C206.117 115.583 203.007 110.607 200.564 104.876L206.228 103.077ZM186.37 83.752H244.479V89.8827H186.37V83.752ZM222.688 94.7473L227.686 91.1489C229.641 92.4816 231.706 93.9921 233.883 95.6803C236.104 97.3684 238.192 99.0566 240.147 100.745C242.102 102.433 243.679 103.988 244.879 105.409L239.547 109.541C238.437 108.119 236.949 106.542 235.083 104.81C233.217 103.033 231.195 101.278 229.019 99.5453C226.842 97.7683 224.732 96.1689 222.688 94.7473ZM209.494 76.2219L215.491 74.1561C216.424 75.5333 217.357 77.066 218.29 78.7541C219.223 80.4423 219.911 81.8861 220.356 83.0856L214.092 85.4846C213.692 84.2407 213.048 82.7524 212.159 81.0198C211.315 79.2872 210.427 77.6879 209.494 76.2219ZM254.275 78.221H310.517V84.2851H254.275V78.221ZM269.335 94.1476H296.656V100.078H269.335V94.1476ZM265.936 112.806H294.524V118.67H265.936V112.806ZM252.142 128.466H312.45V134.597H252.142V128.466ZM268.868 82.8191H275.732C275.199 85.7512 274.621 88.8387 273.999 92.0818C273.377 95.3249 272.733 98.5679 272.067 101.811C271.401 105.01 270.734 108.075 270.068 111.007C269.446 113.895 268.846 116.449 268.269 118.67H261.272C261.938 116.36 262.604 113.739 263.271 110.807C263.937 107.875 264.603 104.787 265.27 101.544C265.981 98.3014 266.647 95.0805 267.269 91.8819C267.891 88.6832 268.424 85.6623 268.868 82.8191ZM294.457 94.1476H295.124L296.257 93.881L301.055 94.4808C300.788 96.9242 300.455 99.6563 300.055 102.677C299.7 105.698 299.3 108.83 298.856 112.073C298.456 115.272 298.011 118.448 297.523 121.603C297.079 124.757 296.612 127.755 296.123 130.599L289.659 130.066C290.104 127.222 290.57 124.179 291.059 120.936C291.548 117.693 292.014 114.45 292.458 111.207C292.903 107.964 293.302 104.943 293.658 102.144C294.013 99.3009 294.28 96.8797 294.457 94.8806V94.1476ZM322.912 79.7537L327.044 75.9553C328.243 76.9327 329.509 78.0211 330.842 79.2206C332.175 80.4201 333.441 81.6196 334.64 82.8191C335.84 83.9741 336.795 85.0181 337.506 85.9511L333.174 90.4158C332.463 89.4385 331.531 88.3278 330.375 87.0839C329.265 85.84 328.043 84.5739 326.71 83.2855C325.422 81.9972 324.156 80.8199 322.912 79.7537ZM326.777 135.597L325.444 129.999L326.844 127.733L339.638 117.738C339.905 118.582 340.26 119.537 340.704 120.603C341.193 121.625 341.615 122.424 341.971 123.002C338.95 125.401 336.506 127.356 334.64 128.866C332.774 130.332 331.308 131.487 330.242 132.331C329.22 133.175 328.465 133.842 327.976 134.33C327.488 134.819 327.088 135.241 326.777 135.597ZM318.114 95.6136H330.042V101.678H318.114V95.6136ZM349.167 77.1548H366.893V83.019H349.167V77.1548ZM340.971 104.077H371.758V110.007H340.971V104.077ZM369.825 104.077H370.958L372.024 103.877L375.889 105.543C374.512 110.074 372.646 114.05 370.292 117.471C367.982 120.892 365.272 123.846 362.162 126.334C359.097 128.822 355.698 130.91 351.966 132.598C348.279 134.33 344.392 135.708 340.305 136.729C340.038 135.885 339.616 134.908 339.038 133.797C338.461 132.731 337.906 131.865 337.372 131.198C341.104 130.443 344.68 129.355 348.101 127.933C351.566 126.467 354.721 124.668 357.564 122.535C360.407 120.359 362.873 117.826 364.961 114.939C367.093 112.007 368.715 108.719 369.825 105.076V104.077ZM348.568 108.741C350.3 112.562 352.655 115.983 355.631 119.004C358.652 122.025 362.206 124.579 366.293 126.667C370.381 128.755 374.934 130.288 379.954 131.265C379.51 131.709 379.044 132.265 378.555 132.931C378.066 133.597 377.6 134.264 377.156 134.93C376.711 135.641 376.356 136.285 376.089 136.863C368.315 134.997 361.673 131.843 356.164 127.4C350.7 122.913 346.391 117.315 343.237 110.607L348.568 108.741ZM347.568 77.1548H353.432V84.6849C353.432 86.8174 353.121 89.0164 352.499 91.2821C351.922 93.5034 350.789 95.6358 349.101 97.6794C347.413 99.6786 344.969 101.433 341.771 102.944C341.504 102.5 341.104 101.989 340.571 101.411C340.082 100.789 339.572 100.189 339.038 99.6119C338.505 99.0344 338.039 98.6123 337.639 98.3458C340.527 97.0575 342.659 95.658 344.036 94.1476C345.458 92.5927 346.391 90.9934 346.835 89.3496C347.324 87.7059 347.568 86.0843 347.568 84.485V77.1548ZM363.961 77.1548H369.959V92.2817C369.959 93.2146 370.025 93.881 370.159 94.2809C370.292 94.6807 370.625 94.8806 371.158 94.8806C371.425 94.8806 371.824 94.8806 372.358 94.8806C372.891 94.8806 373.424 94.8806 373.957 94.8806C374.534 94.8806 374.956 94.8806 375.223 94.8806C375.712 94.8806 376.289 94.8584 376.956 94.814C377.622 94.7251 378.155 94.614 378.555 94.4808C378.644 95.2804 378.733 96.1912 378.821 97.2129C378.91 98.2347 378.999 99.101 379.088 99.8118C378.644 99.9895 378.066 100.101 377.355 100.145C376.689 100.189 376.023 100.212 375.356 100.212C375.001 100.212 374.49 100.212 373.824 100.212C373.202 100.212 372.58 100.212 371.958 100.212C371.336 100.212 370.892 100.212 370.625 100.212C368.804 100.212 367.404 99.9451 366.427 99.412C365.494 98.8789 364.85 98.0126 364.494 96.8131C364.139 95.6136 363.961 94.0587 363.961 92.1484V77.1548ZM326.777 135.597C326.644 135.063 326.377 134.464 325.977 133.797C325.622 133.131 325.222 132.465 324.778 131.798C324.334 131.132 323.912 130.621 323.512 130.266C324 129.91 324.489 129.444 324.978 128.866C325.511 128.289 325.955 127.6 326.311 126.8C326.666 125.956 326.844 125.001 326.844 123.935V95.6136H332.974V128.799C332.974 128.799 332.663 129.044 332.041 129.533C331.419 129.977 330.709 130.554 329.909 131.265C329.109 132.02 328.376 132.776 327.71 133.531C327.088 134.33 326.777 135.019 326.777 135.597ZM390.616 79.887L394.615 75.822C395.859 76.7994 397.169 77.8878 398.546 79.0873C399.968 80.2424 401.301 81.4197 402.545 82.6192C403.833 83.7742 404.833 84.8182 405.543 85.7512L401.345 90.3492C400.59 89.4163 399.613 88.3278 398.413 87.0839C397.214 85.84 395.925 84.5961 394.548 83.3522C393.171 82.0638 391.86 80.9088 390.616 79.887ZM394.881 135.863L393.549 129.732L395.215 127.4L409.142 117.738C409.275 118.315 409.453 118.959 409.675 119.67C409.942 120.381 410.208 121.092 410.475 121.802C410.741 122.469 410.963 123.024 411.141 123.468C407.898 125.779 405.277 127.667 403.278 129.133C401.279 130.554 399.724 131.687 398.613 132.531C397.502 133.42 396.681 134.108 396.147 134.597C395.614 135.086 395.192 135.508 394.881 135.863ZM384.952 95.6136H399.146V101.878H384.952V95.6136ZM406.743 96.4799H446.259V103.01H406.743V96.4799ZM423.269 75.089H429.933V136.729H423.269V75.089ZM394.881 135.863C394.748 135.33 394.481 134.686 394.082 133.931C393.726 133.175 393.326 132.442 392.882 131.732C392.438 131.021 392.038 130.465 391.683 130.066C392.393 129.577 393.149 128.844 393.948 127.867C394.748 126.845 395.148 125.601 395.148 124.135V95.6136H401.545V129.333C401.545 129.333 401.301 129.488 400.812 129.799C400.368 130.066 399.813 130.443 399.146 130.932C398.524 131.421 397.88 131.954 397.214 132.531C396.592 133.153 396.036 133.731 395.548 134.264C395.103 134.841 394.881 135.374 394.881 135.863Z" fill="#898989"/>
</svg>
